<svg width="148" height="96" viewBox="0 0 148 96" fill="none" xmlns="http://www.w3.org/2000/svg">
<path d="M63.7955 4.95451C56.8244 10.8863 55.9988 21.3703 61.961 28.3596C64.4835 31.3025 67.7397 33.1418 71.2712 33.8316C71.3629 33.8316 71.4547 33.8776 71.5464 33.8776C70.5833 32.0382 70.3081 26.8882 70.3081 26.8882C68.9781 26.2904 67.7856 25.4168 66.7766 24.2212C63.1076 19.9448 63.6121 13.4613 67.9232 9.78268C72.1885 6.10408 78.6551 6.60989 82.3242 10.9322C85.9932 15.2086 85.4887 21.6922 81.1776 25.3708C79.8017 26.5663 78.1507 27.302 76.4537 27.6239C76.7748 31.3025 78.4258 33.6936 78.4717 33.6936C80.9024 33.0958 83.2415 31.9463 85.3053 30.1989C92.2765 24.2672 93.102 13.7832 87.1398 6.79382C81.1776 -0.195535 70.7667 -0.977239 63.7955 4.95451Z" fill="#3BBAD3"/>
<path d="M74.5735 21.0484C76.4732 21.0484 78.0132 19.5044 78.0132 17.5997C78.0132 15.6951 76.4732 14.151 74.5735 14.151C72.6738 14.151 71.1338 15.6951 71.1338 17.5997C71.1338 19.5044 72.6738 21.0484 74.5735 21.0484Z" fill="#3BBAD3"/>
<path d="M110.301 52.1326C110.714 42.9821 103.651 35.211 94.5239 34.7512C90.6714 34.5673 87.0941 35.7169 84.1588 37.7861C84.0671 37.8321 84.0212 37.878 83.9295 37.97C85.9475 38.5678 89.8917 41.9245 89.8917 41.9245C91.2217 41.3727 92.6894 41.0968 94.2487 41.1428C99.8899 41.4187 104.247 46.2009 103.972 51.8567C103.696 57.5126 98.9267 61.8809 93.2856 61.605C87.6444 61.3291 83.2874 56.547 83.5626 50.8911C83.6543 49.0518 84.2047 47.3504 85.122 45.879C82.2326 43.6259 79.3432 43.212 79.3432 43.166C78.1049 45.3732 77.3252 47.8563 77.2335 50.5692C76.8208 59.7198 83.8837 67.4908 93.0104 67.9506C102.137 68.4105 109.842 61.2832 110.301 52.1326Z" fill="#37A7DF"/>
<path d="M93.7444 54.7996C95.6441 54.7996 97.1841 53.2556 97.1841 51.3509C97.1841 49.4463 95.6441 47.9022 93.7444 47.9022C91.8447 47.9022 90.3047 49.4463 90.3047 51.3509C90.3047 53.2556 91.8447 54.7996 93.7444 54.7996Z" fill="#37A7DF"/>
<path d="M46.7346 65.0997C54.6689 69.652 64.8046 66.8471 69.2992 58.8921C71.1796 55.5354 71.8217 51.8108 71.2713 48.2701C71.2713 48.1781 71.2255 48.0862 71.2255 47.9942C69.8496 49.5116 65.0798 51.5349 65.0798 51.5349C64.9881 52.9603 64.5295 54.4318 63.7957 55.7653C60.998 60.6854 54.7606 62.3868 49.8992 59.5818C44.9918 56.7769 43.2949 50.5232 46.0925 45.6491C48.8902 40.729 55.1275 39.0276 59.989 41.8325C61.5942 42.7522 62.8325 44.0397 63.7039 45.5112C67.0519 43.9477 68.703 41.6026 68.703 41.5566C67.3271 39.4414 65.4467 37.6481 63.1077 36.3146C55.1734 31.7624 45.0377 34.5673 40.5431 42.5223C36.0485 50.4773 38.8003 60.5934 46.7346 65.0997Z" fill="#4386C6"/>
<path d="M54.9441 54.1099C56.8438 54.1099 58.3838 52.5658 58.3838 50.6612C58.3838 48.7565 56.8438 47.2125 54.9441 47.2125C53.0444 47.2125 51.5044 48.7565 51.5044 50.6612C51.5044 52.5658 53.0444 54.1099 54.9441 54.1099Z" fill="#4386C6"/>
<path d="M3.348 76.2275V83.7687C4.40285 82.3892 5.8246 81.7454 7.5674 81.7454C11.2823 81.7454 13.1168 83.9526 13.1168 88.3669V95.5402H9.76882V88.4129C9.76882 86.0678 8.75984 84.8722 6.696 84.8722C5.73288 84.8722 4.90734 85.2401 4.26526 85.9758C3.62318 86.6656 3.348 87.5392 3.348 88.5968V95.5402H0V76.2275H3.348Z" fill="black"/>
<path d="M26.7382 81.9293H29.9486V95.5402H26.784L26.6006 93.5629C26.2337 94.2987 25.5916 94.8964 24.6743 95.3562C23.8488 95.7241 23.0233 95.954 22.1977 95.954C20.1339 95.954 18.437 95.3563 17.1987 94.1147C15.8686 92.8272 15.2266 91.0339 15.2266 88.6888C15.2266 86.4356 15.9145 84.6423 17.2904 83.3548C18.5746 82.1592 20.2256 81.5615 22.2895 81.5615C24.3074 81.5615 25.7751 82.2972 26.6006 83.7686L26.7382 81.9293ZM19.767 85.6999C18.9873 86.4356 18.5746 87.4472 18.5746 88.7348C18.5746 90.0223 18.9873 91.0339 19.767 91.7696C20.5008 92.5053 21.4639 92.8732 22.6105 92.8732C23.8488 92.8732 24.8578 92.4593 25.5916 91.5857C26.2337 90.804 26.6006 89.8843 26.6006 88.7348C26.6006 87.6312 26.2796 86.7115 25.5916 85.9298C24.8578 85.0561 23.8488 84.6423 22.6105 84.6423C21.4639 84.6423 20.5008 84.9642 19.767 85.6999Z" fill="black"/>
<path d="M41.827 95.5402V88.2749C41.827 87.3093 41.5977 86.5276 41.1391 85.8839C40.6346 85.1941 39.9466 84.8263 39.0294 84.8263C38.1121 84.8263 37.4242 85.1941 36.9197 85.8839C36.4152 86.5276 36.14 87.3093 36.14 88.2749V95.5402H32.792V81.9293H35.9107L36.14 83.5847C36.7821 82.3432 37.9745 81.6994 39.7173 81.6994C41.6894 81.6994 43.0194 82.5271 43.7533 84.2285C44.8081 82.5731 46.3216 81.7454 48.2937 81.7454C52.1462 81.7454 54.0266 83.9066 54.0266 88.183V95.5402H50.6786V88.183C50.6786 85.9758 49.8072 84.8722 48.1102 84.8722C47.2388 84.8722 46.505 85.1941 45.9547 85.8839C45.4043 86.5276 45.175 87.3093 45.175 88.229V95.4942H41.827V95.5402Z" fill="black"/>
<path d="M57.4663 95.5402V82.3892H60.9978V95.5402H57.4663Z" fill="black"/>
<path d="M68.7488 78.1128V81.9753H72.5096V84.8722H68.7488V90.758C68.7488 92.0455 69.3451 92.6893 70.4916 92.6893C71.042 92.6893 71.5465 92.5513 72.0968 92.2754L73.0141 95.1264C72.0968 95.4942 71.1796 95.6782 70.2165 95.7241C68.703 95.7701 67.5105 95.4023 66.685 94.5746C65.8136 93.7009 65.355 92.4134 65.355 90.758V84.8722H62.8325V81.9753H65.355V78.4807L68.7488 78.1128Z" fill="black"/>
<path d="M85.7641 81.9293H88.9745V95.5402H85.8099L85.6265 93.5629C85.2596 94.2987 84.6175 94.8964 83.7002 95.3562C82.8747 95.7241 82.0492 95.954 81.2236 95.954C79.1598 95.954 77.4629 95.3563 76.2246 94.1147C74.8945 92.8272 74.2524 91.0339 74.2524 88.6888C74.2524 86.4356 74.9404 84.6423 76.3163 83.3548C77.6004 82.1592 79.2515 81.5615 81.3154 81.5615C83.3333 81.5615 84.8009 82.2972 85.6265 83.7686L85.7641 81.9293ZM78.7929 85.6999C78.0132 86.4356 77.6004 87.4472 77.6004 88.7348C77.6004 90.0223 78.0132 91.0339 78.7929 91.7696C79.5267 92.5053 80.4898 92.8732 81.6364 92.8732C82.8747 92.8732 83.8837 92.4593 84.6175 91.5857C85.2596 90.804 85.6265 89.8843 85.6265 88.7348C85.6265 87.6312 85.3054 86.7115 84.6175 85.9298C83.8837 85.0561 82.8747 84.6423 81.6364 84.6423C80.444 84.6423 79.5267 84.9642 78.7929 85.6999Z" fill="black"/>
<path d="M101.77 95.5402V88.4129C101.77 87.3553 101.495 86.4816 100.945 85.8379C100.348 85.1481 99.5228 84.7803 98.5138 84.7803C97.5048 84.7803 96.6793 85.1481 95.9913 85.9298C95.3493 86.6656 95.0282 87.5392 95.0282 88.5968V95.5402H91.7261V81.9294H94.7072L94.9365 83.7687C96.3124 82.3892 97.8259 81.7454 99.3852 81.7454C101.036 81.7454 102.412 82.3432 103.467 83.4928C104.568 84.6883 105.164 86.3437 105.164 88.4129V95.5402H101.77Z" fill="black"/>
<path d="M108.053 95.5402V82.3892H111.585V95.5402H108.053Z" fill="black"/>
<path d="M123.463 85.562C122.592 84.7343 121.491 84.3664 120.115 84.3664C118.464 84.3664 117.639 84.8262 117.639 85.6999C117.639 86.5736 118.464 87.0794 120.161 87.1714C121.858 87.2633 123.142 87.5852 124.014 88.045C125.298 88.7808 125.986 89.9303 125.986 91.5397C125.986 92.8272 125.481 93.8388 124.518 94.6665C123.463 95.5402 121.996 96 120.161 96C117.501 96 115.437 95.1723 113.878 93.5629L115.529 91.1718C116.63 92.4134 118.189 93.0571 120.207 93.0571C120.849 93.0571 121.445 92.9192 121.904 92.5973C122.408 92.2754 122.638 91.9076 122.638 91.4018C122.638 90.5741 121.721 90.0683 119.932 89.9763C116.171 89.7004 114.337 88.2749 114.337 85.7459C114.337 84.3204 114.979 83.2169 116.263 82.4352C117.318 81.7914 118.602 81.5155 120.069 81.5155C122.225 81.5155 124.014 82.1133 125.344 83.3088L123.463 85.562Z" fill="black"/>
<path d="M128.095 95.5402V82.3892H131.627V95.5402H128.095Z" fill="black"/>
<path d="M144.652 95.5402V88.4129C144.652 87.3553 144.377 86.4816 143.826 85.8379C143.23 85.1481 142.405 84.7803 141.396 84.7803C140.387 84.7803 139.561 85.1481 138.873 85.9298C138.231 86.6656 137.91 87.5392 137.91 88.5968V95.5402H134.562V81.9294H137.543L137.772 83.7687C139.148 82.3892 140.662 81.7454 142.221 81.7454C143.872 81.7454 145.248 82.3432 146.303 83.4928C147.404 84.6883 148 86.3437 148 88.4129V95.5402H144.652Z" fill="black"/>
</svg>
